<svg width="563" height="563" viewBox="0 0 563 563" fill="none" xmlns="http://www.w3.org/2000/svg">
<path d="M80.5 413.5V22.5L279 128.5L483.5 22.5V413.5L279 548L80.5 413.5Z" fill="#625BF6"/>
<path d="M94 403V50L268 142V520L94 403Z" fill="#7B75FD"/>
<path d="M321.75 364.469C321.75 360.406 321.125 356.76 319.875 353.531C318.729 350.198 316.542 347.177 313.312 344.469C310.083 341.656 305.552 338.896 299.719 336.188C293.885 333.479 286.333 330.667 277.062 327.75C266.75 324.417 256.958 320.667 247.688 316.5C238.521 312.333 230.396 307.49 223.312 301.969C216.333 296.344 210.812 289.833 206.75 282.438C202.792 275.042 200.812 266.448 200.812 256.656C200.812 247.177 202.896 238.583 207.062 230.875C211.229 223.062 217.062 216.396 224.562 210.875C232.062 205.25 240.917 200.927 251.125 197.906C261.438 194.885 272.74 193.375 285.031 193.375C301.802 193.375 316.438 196.396 328.938 202.438C341.438 208.479 351.125 216.76 358 227.281C364.979 237.802 368.469 249.833 368.469 263.375H321.906C321.906 256.708 320.5 250.875 317.688 245.875C314.979 240.771 310.812 236.76 305.188 233.844C299.667 230.927 292.688 229.469 284.25 229.469C276.125 229.469 269.354 230.719 263.938 233.219C258.521 235.615 254.458 238.896 251.75 243.062C249.042 247.125 247.688 251.708 247.688 256.812C247.688 260.667 248.625 264.156 250.5 267.281C252.479 270.406 255.396 273.323 259.25 276.031C263.104 278.74 267.844 281.292 273.469 283.688C279.094 286.083 285.604 288.427 293 290.719C305.396 294.469 316.281 298.688 325.656 303.375C335.135 308.062 343.052 313.323 349.406 319.156C355.76 324.99 360.552 331.604 363.781 339C367.01 346.396 368.625 354.781 368.625 364.156C368.625 374.052 366.698 382.906 362.844 390.719C358.99 398.531 353.417 405.146 346.125 410.562C338.833 415.979 330.135 420.094 320.031 422.906C309.927 425.719 298.625 427.125 286.125 427.125C274.875 427.125 263.781 425.667 252.844 422.75C241.906 419.729 231.958 415.198 223 409.156C214.146 403.115 207.062 395.406 201.75 386.031C196.438 376.656 193.781 365.562 193.781 352.75H240.812C240.812 359.833 241.906 365.823 244.094 370.719C246.281 375.615 249.354 379.573 253.312 382.594C257.375 385.615 262.167 387.802 267.688 389.156C273.312 390.51 279.458 391.188 286.125 391.188C294.25 391.188 300.917 390.042 306.125 387.75C311.438 385.458 315.344 382.281 317.844 378.219C320.448 374.156 321.75 369.573 321.75 364.469Z" fill="white"/>
</svg>
